<svg width="49" height="47" viewBox="0 0 49 47" fill="none" xmlns="http://www.w3.org/2000/svg">
<path fill-rule="evenodd" clip-rule="evenodd" d="M23.9913 0.0944048C18.2938 0.119763 12.7911 2.15937 8.46702 5.84853C4.14297 9.53769 1.27959 14.6358 0.388864 20.2314C-0.50186 25.8269 0.638152 31.5549 3.60508 36.3912C6.57201 41.2275 11.1724 44.8567 16.5836 46.6298C17.7767 46.8464 18.2228 46.1057 18.2204 45.4774C18.2179 44.8491 18.1869 43.0276 18.1711 41.036C11.5002 42.5046 10.0727 38.2504 10.0727 38.2504C8.97288 35.4886 7.39626 34.7677 7.39626 34.7677C5.21262 33.2984 7.55351 33.3169 7.55351 33.3169C9.96648 33.4773 11.2432 35.7642 11.2432 35.7642C13.3957 39.4031 16.8689 38.3343 18.2335 37.7125C18.4421 36.1666 19.0619 35.1131 19.7471 34.5137C14.4114 33.934 8.79983 31.9091 8.76388 22.7653C8.7215 20.394 9.5975 18.0972 11.2106 16.3501C10.9619 15.7505 10.1297 13.3275 11.4202 10.0268C11.4202 10.0268 13.4326 9.3787 18.0309 12.4468C21.9604 11.3617 26.1108 11.3454 30.0487 12.3996C34.6187 9.2954 36.6321 9.92764 36.6321 9.92764C37.9526 13.2102 37.1395 15.6397 36.8955 16.2492C38.5274 17.9838 39.4233 20.2776 39.3966 22.6528C39.4326 31.8164 33.8251 33.8577 28.4862 34.4675C29.3475 35.207 30.1202 36.6542 30.129 38.8828C30.1415 42.0757 30.1238 44.6443 30.1269 45.4306C30.1294 46.0668 30.5655 46.808 31.7806 46.5701C37.1784 44.7542 41.7505 41.0883 44.6792 36.228C47.608 31.3677 48.7023 25.63 47.7666 20.0412C46.8309 14.4523 43.9261 9.3768 39.5717 5.7224C35.2173 2.06799 29.6974 0.0730514 23.9992 0.0943736L23.9913 0.0944048Z" fill="#FF4747"/>
</svg>
