<svg width="42" height="43" viewBox="0 0 42 43" fill="none" xmlns="http://www.w3.org/2000/svg">
<path d="M38.7382 0.0121679L3.0886 0.152338C1.38088 0.159053 0.0053188 1.51722 0.0118948 3.18969L0.153117 39.1068C0.159693 40.7793 1.54592 42.1348 3.25364 42.1281L38.9032 41.9879C40.6109 41.9812 41.9946 40.6148 41.9881 38.9506L41.8469 3.0252C41.8403 1.35273 40.4459 0.00545335 38.7382 0.0121679ZM12.5522 35.8853L6.34235 35.9097L6.26356 15.8728L12.4734 15.8484L12.5522 35.8853ZM9.35777 13.1305C7.36407 13.1384 5.74806 11.5296 5.74022 9.53741C5.73239 7.54521 7.3357 5.92379 9.3294 5.91595C11.3149 5.90815 12.9309 7.5169 12.9388 9.50911C12.9466 11.4931 11.3433 13.1227 9.35777 13.1305ZM35.7902 35.7939L29.5885 35.8183L29.5502 26.0786C29.5411 23.7584 29.4885 20.7662 26.3018 20.7787C23.0743 20.7914 22.594 23.3266 22.6043 25.9419L22.6433 35.8456L16.4497 35.8699L16.371 15.8331L22.3194 15.8097L22.3301 18.5479L22.4118 18.5476C23.2309 16.9703 25.2507 15.298 28.2658 15.2862C34.5492 15.2615 35.7258 19.4053 35.747 24.7999L35.7902 35.7939Z" fill="#FF4747"/>
</svg>
