<svg width="75" height="108" viewBox="0 0 75 108" fill="none" xmlns="http://www.w3.org/2000/svg">
<path d="M74.6592 3.01499L74.6592 2.76499L74.4092 2.76499L54.6972 2.76499L54.4472 2.76499L54.4472 3.01499L54.4472 50.4091L54.4469 50.4091L54.4476 50.4222L54.9589 60.189L52.3519 56.8L52.3522 56.7997L52.3436 56.7897L4.65115 1.12433L4.57632 1.03699L4.4613 1.03699L1.41724 1.03699L1.16724 1.03699L1.16724 1.28699L1.16724 105.383L1.16724 105.633L1.41724 105.633L21.1292 105.633L21.3792 105.633L21.3792 105.383L21.3792 59.7172L21.3796 59.7172L21.3789 59.7044L20.8628 49.6911L22.9037 52.3246L22.9084 52.3306L22.9133 52.3363L71.328 107.564L71.4027 107.649L71.516 107.649L74.4092 107.649L74.6592 107.649L74.6592 107.399L74.6592 3.01499ZM56.2191 64.2874L56.7089 64.9242L56.6669 64.1219L55.9472 50.3765L55.9472 4.26499L73.1592 4.26499L73.1592 106.149L72.0825 106.149L24.0662 51.3758L19.6068 45.6219L19.1185 44.9918L19.1596 45.7879L19.8792 59.7494L19.8792 104.133L2.66724 104.133L2.66724 2.53699L3.88622 2.53699L51.1831 57.7407L56.2191 64.2874Z" fill="white" stroke="white" stroke-width="2"/>
<path d="M25.35 101.289L25.2027 101.654L25.523 101.883C27.2839 103.141 30.1209 104.214 33.9758 105.13C37.885 106.095 41.2153 106.584 43.9577 106.584C54.697 106.584 62.5291 103.656 67.3158 97.6848L67.317 97.6832C72.0628 91.7143 74.4097 83.7452 74.4097 73.828L74.4097 3.55603L74.4097 3.05603L73.9097 3.05603L55.1897 3.05603L54.6897 3.05603L54.6897 3.55603L54.6897 75.556C54.6897 79.7482 54.1156 82.8419 53.0216 84.8946C51.9091 86.9335 50.5758 88.1947 49.0456 88.7651C47.4336 89.3168 45.4537 89.6 43.0937 89.6C41.2668 89.6 39.4282 89.1218 37.5728 88.1488C35.7711 87.1312 34.295 85.7696 33.14 84.0601L32.6136 83.2812L32.262 84.153L25.35 101.289Z" fill="#FF4747" stroke="#FF4747"/>
</svg>

