<svg width="51" height="105" viewBox="0 0 51 105" fill="none" xmlns="http://www.w3.org/2000/svg">
<path d="M1.02878 98.906L0.881516 99.2711L1.20186 99.4999C2.96273 100.758 5.79968 101.831 9.65466 102.747C13.5639 103.712 16.8941 104.201 19.6365 104.201C30.3759 104.201 38.2079 101.273 42.9946 95.3018L42.9959 95.3002C47.7416 89.3313 50.0885 81.3623 50.0885 71.445L50.0885 1.17303L50.0885 0.673035L49.5885 0.673035L30.8685 0.673035L30.3685 0.673035L30.3685 1.17303L30.3685 73.173C30.3685 77.3652 29.7945 80.4589 28.7004 82.5116C27.5879 84.5505 26.2546 85.8117 24.7244 86.3821C23.1124 86.9338 21.1325 87.217 18.7725 87.217C16.9456 87.217 15.107 86.7388 13.2516 85.7658C11.4499 84.7482 9.97385 83.3866 8.81877 81.6771L8.29245 80.8982L7.94078 81.77L1.02878 98.906Z" fill="#FF4747" stroke="#FF4747"/>
</svg>
